<svg width="27" height="27" viewBox="0 0 27 27" fill="none" xmlns="http://www.w3.org/2000/svg">
<path d="M13.0645 19.3538C12.8909 19.3538 12.7236 19.2909 12.5932 19.1767C12.1006 18.746 11.6257 18.3412 11.2066 17.9842L11.2045 17.9823C9.97606 16.9354 8.91525 16.0314 8.17715 15.1408C7.35208 14.1452 6.96777 13.2012 6.96777 12.17C6.96777 11.1681 7.31133 10.2437 7.93509 9.56714C8.56629 8.88254 9.4324 8.50549 10.3741 8.50549C11.078 8.50549 11.7226 8.72802 12.29 9.16684C12.5763 9.38834 12.8359 9.65943 13.0645 9.97564C13.2933 9.65943 13.5528 9.38834 13.8392 9.16684C14.4066 8.72802 15.0512 8.50549 15.755 8.50549C16.6967 8.50549 17.5629 8.88254 18.1941 9.56714C18.8178 10.2437 19.1613 11.1681 19.1613 12.17C19.1613 13.2012 18.7771 14.1452 17.952 15.1407C17.2139 16.0314 16.1532 16.9354 14.9249 17.9821C14.5052 18.3397 14.0295 18.7451 13.5358 19.1769C13.4055 19.2909 13.238 19.3538 13.0645 19.3538V19.3538ZM10.3741 9.21977C9.63427 9.21977 8.9546 9.51505 8.46015 10.0513C7.95835 10.5956 7.68196 11.348 7.68196 12.17C7.68196 13.0373 8.0043 13.813 8.72705 14.6851C9.42561 15.528 10.4646 16.4135 11.6677 17.4387L11.6699 17.4406C12.0905 17.799 12.5673 18.2054 13.0635 18.6393C13.5627 18.2046 14.0402 17.7975 14.4616 17.4385C15.6646 16.4133 16.7036 15.528 17.4021 14.6851C18.1248 13.813 18.4471 13.0373 18.4471 12.17C18.4471 11.348 18.1707 10.5956 17.6689 10.0513C17.1746 9.51505 16.4948 9.21977 15.755 9.21977C15.213 9.21977 14.7154 9.39206 14.2761 9.73181C13.8845 10.0347 13.6117 10.4176 13.4518 10.6855C13.3696 10.8233 13.2248 10.9056 13.0645 10.9056C12.9042 10.9056 12.7595 10.8233 12.6773 10.6855C12.5174 10.4176 12.2447 10.0347 11.853 9.73181C11.4136 9.39206 10.916 9.21977 10.3741 9.21977V9.21977Z" stroke="black"/>
<circle cx="13.5" cy="13.5" r="12.5" stroke="black" stroke-width="2"/>
</svg>
