<svg width="24" height="25" viewBox="0 0 24 25" fill="none" xmlns="http://www.w3.org/2000/svg">
<path d="M20.026 16.1611C18.7483 14.7997 17.2275 13.7918 15.5682 13.1817C17.3454 11.8775 18.5129 9.69473 18.5129 7.22656C18.5129 3.24185 15.4705 0 11.731 0C7.99139 0 4.949 3.24185 4.949 7.22656C4.949 9.69473 6.11655 11.8775 7.89374 13.1817C6.23445 13.7918 4.71364 14.7997 3.43593 16.1611C1.22025 18.5221 0 21.6611 0 25H1.83296C1.83296 19.1844 6.27317 14.4531 11.731 14.4531C17.1887 14.4531 21.6289 19.1844 21.6289 25H23.4619C23.4619 21.6611 22.2417 18.5221 20.026 16.1611ZM11.731 12.5C9.00209 12.5 6.78196 10.1344 6.78196 7.22656C6.78196 4.31875 9.00209 1.95312 11.731 1.95312C14.4598 1.95312 16.6799 4.31875 16.6799 7.22656C16.6799 10.1344 14.4598 12.5 11.731 12.5Z" fill="black"/>
</svg>
